<svg version="1.2" xmlns="http://www.w3.org/2000/svg" viewBox="0 0 122 37" width="122" height="37">
	<title>lava_logo-svg</title>
	<defs>
		<clipPath clipPathUnits="userSpaceOnUse" id="cp1">
			<path d="m0 0.5h122v36h-122z"/>
		</clipPath>
	</defs>
	<style>
		.s0 { fill: #ffffff } 
	</style>
	<g id="Clip-Path" clip-path="url(#cp1)">
		<g id="Layer">
			<path id="Layer" fill-rule="evenodd" class="s0" d="m112.5 36.5h-31.1c-5 0-9-4-9-9v-18c0-5 4-9 9-9h31.1c4.9 0 9 4 9 9v18c0 5-4.1 9-9 9zm-29.4-29h-2.5v4.5h-2.2v2.2h2.2v7.5q0 2 0.9 3.1 0.9 1 2.9 1h1.8v-2.2h-1.2q-1 0-1.5-0.5-0.4-0.4-0.4-1.4v-7.5h3.4v-2.2h-3.4v-4.5zm5.2 15q0.9 1.7 2.4 2.7 1.6 0.9 3.6 0.9 2 0 3.6-0.9 1.5-1 2.4-2.7 0.9-1.6 0.9-3.6 0-2-0.8-3.7-0.8-1.6-2.4-2.6-1.6-0.9-3.7-0.9-2.1 0-3.7 0.9-1.6 1-2.4 2.6-0.8 1.7-0.8 3.7 0 2 0.9 3.6zm3.7 0.8q-1-0.7-1.5-1.8-0.6-1.2-0.6-2.6 0-2.1 1.2-3.4 1.2-1.3 3.2-1.3 2 0 3.2 1.3 1.2 1.3 1.2 3.4 0 1.4-0.6 2.6-0.5 1.1-1.5 1.8-1 0.6-2.3 0.6-1.3 0-2.3-0.6zm18 2.8q1.8 0 3.2-0.9 1.5-1 2.3-2.7 0.8-1.6 0.8-3.6 0-2-0.8-3.7-0.7-1.6-2.1-2.6-1.5-0.9-3.4-0.9-3 0-4.7 2.1v-1.8h-2.5v19.1h2.5v-6.9q0.8 0.9 2 1.4 1.2 0.5 2.7 0.5zm-4.7-7.2q0-2.1 1.2-3.4 1.1-1.3 3.2-1.3 1.1 0 2 0.6 0.9 0.6 1.5 1.7 0.6 1.1 0.6 2.4 0 1.4-0.6 2.5-0.6 1.2-1.5 1.8-0.9 0.7-2 0.7-2.1 0-3.2-1.4-1.2-1.4-1.2-3.6zm-102.5 10.3v-20.9q0-1.5-0.4-2.1-0.5-0.7-1.5-0.7h-0.9v-3.3h0.9q3 0 4.3 1.5 1.3 1.6 1.3 4.6v20.9zm25.1-3.3v3.3h-1.1q-1.8 0-2.9-0.6-1.1-0.6-1.6-1.9-1 1.3-2.5 2.1-1.5 0.8-3.4 0.8-3.8 0-5.9-1.6-2-1.6-2-4.5 0-2.8 2.1-4.4 2-1.7 5.8-1.7h5.5v-1.4q0-2.6-1.3-3.5-1.2-0.9-3.3-0.9-1.9 0-3.1 1-1.2 0.9-1.3 2.9h-3.7q0.2-2.4 1.4-4 1.2-1.6 3-2.4 1.8-0.8 3.7-0.8 3.7 0 6 1.7 2.3 1.8 2.3 6v7.1c0 1.5 0 2.8 1.9 2.8zm-6-5.2h-5.6q-1.9 0-3 0.7-1.2 0.7-1.2 2.1 0 1.3 1.2 2.1 1.2 0.7 3 0.7 1.4 0 2.7-0.6 1.3-0.7 2.1-2 0.8-1.2 0.8-3zm12.5 8.5l-8.2-20.5h3.9l6.4 15.8 6.3-15.8h4l-8.3 20.5zm24.1-16.7q-1.2-0.9-3.3-0.9-1.9 0-3.1 1-1.2 0.9-1.3 2.9h-3.7q0.2-2.4 1.4-4 1.2-1.6 3-2.4 1.8-0.8 3.7-0.8 3.7 0 6 1.7 2.3 1.8 2.3 6v7.1q0 1.3 0.2 2 0.3 0.8 1.2 0.8h0.9v3.3h-1.1q-1.8 0-2.9-0.6-1.1-0.6-1.6-1.9-1 1.3-2.5 2.1-1.5 0.8-3.4 0.8-3.8 0-5.9-1.6-2-1.6-2-4.5 0-2.8 2.1-4.4 2-1.7 5.8-1.7h5.5v-1.4q0-2.6-1.3-3.5zm-7.2 13.1q1.2 0.7 3 0.7 1.4 0 2.7-0.6 1.2-0.7 2-2 0.8-1.2 0.8-3h-5.5q-1.9 0-3.1 0.7-1.1 0.7-1.1 2.1 0 1.3 1.2 2.1z"/>
		</g>
	</g>
</svg>